HIERARCHY
ROOT Hips
{
	OFFSET -3.958830 18.904000 13.208200
	CHANNELS 6 Xposition Yposition Zposition Zrotation Yrotation Xrotation 
	JOINT LHipJoint
	{
		OFFSET 0.000000 0.000000 0.000000
		CHANNELS 3 Zrotation Yrotation Xrotation
		JOINT LeftUpLeg
		{
			OFFSET 1.800000 -1.400000 0.085000
			CHANNELS 3 Zrotation Yrotation Xrotation
			JOINT LeftLeg
			{
				OFFSET 2.215000 -6.000000 0.000000
				CHANNELS 3 Zrotation Yrotation Xrotation
				JOINT LeftFoot
				{
					OFFSET 2.500000 -6.900000 0.000000
					CHANNELS 3 Zrotation Yrotation Xrotation
					JOINT LeftToeBase
					{
						OFFSET 0.200000 -0.500000 1.950000
						CHANNELS 3 Zrotation Yrotation Xrotation
						End Site
						{
							OFFSET 0.000000 0.000000 0.000000
						}
					}
				}
			}
		}
	}
	JOINT RHipJoint
	{
		OFFSET 0.000000 0.000000 0.000000
		CHANNELS 3 Zrotation Yrotation Xrotation
		JOINT RightUpLeg
		{
			OFFSET -1.800000 -1.400000 0.085000
			CHANNELS 3 Zrotation Yrotation Xrotation
			JOINT RightLeg
			{
				OFFSET -2.215000 -6.000000 0.000000
				CHANNELS 3 Zrotation Yrotation Xrotation
				JOINT RightFoot
				{
					OFFSET -2.500000 -6.900000 0.000000
					CHANNELS 3 Zrotation Yrotation Xrotation
					JOINT RightToeBase
					{
						OFFSET -0.200000 -0.500000 1.950000
						CHANNELS 3 Zrotation Yrotation Xrotation
						End Site
						{
							OFFSET 0.000000 0.000000 0.000000
						}
					}
				}
			}
		}
	}
	JOINT LowerBack
	{
		OFFSET 0.000000 0.000000 0.000000
		CHANNELS 3 Zrotation Yrotation Xrotation
		JOINT Spine
		{
			OFFSET -0.087000 1.940000 -0.288900
			CHANNELS 3 Zrotation Yrotation Xrotation
			JOINT Spine1
			{
				OFFSET 0.000000 1.950000 0.060000
				CHANNELS 3 Zrotation Yrotation Xrotation
				JOINT Neck
				{
					OFFSET 0.000000 0.000000 0.000000
					CHANNELS 3 Zrotation Yrotation Xrotation
					JOINT Neck1
					{
						OFFSET 0.000000 1.600000 0.340000
						CHANNELS 3 Zrotation Yrotation Xrotation
						JOINT Head
						{
							OFFSET 0.000000 1.667000 -0.240000
							CHANNELS 3 Zrotation Yrotation Xrotation
							End Site
							{
								OFFSET 0.000000 0.000000 0.000000
							}
						}
					}
				}
				JOINT LeftShoulder
				{
					OFFSET 0.000000 0.000000 0.000000
					CHANNELS 3 Zrotation Yrotation Xrotation
					JOINT LeftArm
					{
						OFFSET 2.700000 1.550000 -0.730000
						CHANNELS 3 Zrotation Yrotation Xrotation
						JOINT LeftForeArm
						{
							OFFSET 5.450000 0.000000 0.000000
							CHANNELS 3 Zrotation Yrotation Xrotation
							JOINT LeftHand
							{
								OFFSET 3.450000 0.000000 0.000000
								CHANNELS 3 Zrotation Yrotation Xrotation
								JOINT LeftHandIndex1
								{
									OFFSET 0.750000 0.000000 0.000000
									CHANNELS 3 Zrotation Yrotation Xrotation
									End Site
									{
										OFFSET 0.000000 0.000000 0.000000
									}
								}
							}
						}
					}
				}
				JOINT RightShoulder
				{
					OFFSET 0.000000 0.000000 0.000000
					CHANNELS 3 Zrotation Yrotation Xrotation
					JOINT RightArm
					{
						OFFSET -2.700000 1.550000 -0.730000
						CHANNELS 3 Zrotation Yrotation Xrotation
						JOINT RightForeArm
						{
							OFFSET -5.450000 0.000000 0.000000
							CHANNELS 3 Zrotation Yrotation Xrotation
							JOINT RightHand
							{
								OFFSET -3.450000 0.000000 0.000000
								CHANNELS 3 Zrotation Yrotation Xrotation
								JOINT RightHandIndex1
								{
									OFFSET -0.750000 0.000000 0.000000
									CHANNELS 3 Zrotation Yrotation Xrotation
									End Site
									{
										OFFSET 0.000000 0.000000 0.000000
									}
								}
							}
						}
					}
				}
			}
		}
	}
}
MOTION
Frames: 9
Frame Time: 0.016667
1.947480 17.092790 -3.362310 -1.543470 -9.149173 3.126307 -15.254859 13.376958 3.277604 4.018621 -3.184974 -22.265941 -8.001200 8.755953 27.021675 0.122547 5.186701 2.649986 0.105110 0.063580 0.001880 18.092982 -10.864839 2.728535 -4.408162 0.479725 -10.028205 8.195243 -4.939310 11.946040 -0.052256 -3.400976 3.261699 0.086510 0.167920 0.011710 -3.037060 -2.113421 -7.492755 2.208366 3.344422 10.184461 2.361845 4.053642 9.768296 -0.231219 -6.781730 -12.836001 -19.365113 9.767999 47.979371 -0.018200 3.175360 4.800540 -13.847364 -15.611025 5.665478 -40.912213 -16.668379 4.093770 -23.345180 -21.216284 3.822243 -3.784931 3.116919 0.030020 0.112670 -0.094120 0.095420 15.493905 22.877878 8.623690 32.677660 16.982281 1.939562 6.131443 12.213415 0.373326 2.635263 -1.228017 -0.071170 0.100260 0.004710 -0.010120 
1.921080 17.114130 -3.360100 -1.201857 -7.890752 2.456286 -15.316444 13.192151 3.515590 5.161662 -3.771266 -24.532249 -9.862306 10.268557 30.301464 0.259314 5.989884 2.346268 0.111540 0.069240 0.003350 18.054153 -10.783672 2.666419 -4.784178 0.265800 -8.810244 8.305344 -5.028721 11.651380 -0.081938 -3.489131 3.235213 0.085560 0.157340 0.007810 -2.917302 -2.096437 -7.647992 1.334350 4.185086 11.110616 3.367814 4.836810 10.021490 -0.497237 -6.385684 -13.003872 -18.857537 8.581702 49.036062 0.431840 1.883630 4.638510 -13.289518 -15.922672 5.321422 -38.557822 -17.817422 4.098356 -24.970028 -23.758952 4.806859 -3.761791 3.121410 0.038700 0.096780 -0.085460 0.094880 15.559286 23.113427 9.249581 31.200479 15.697107 1.714510 5.498604 11.136349 0.291080 2.645062 -1.215980 -0.064840 0.103340 0.002640 -0.006150 
1.897700 17.133520 -3.352710 -0.731809 -6.380524 1.768301 -15.389232 12.953037 3.820052 6.471523 -4.422021 -26.752313 -12.381487 12.076508 33.169383 0.428923 6.892899 2.019023 0.117570 0.073830 0.004610 18.015124 -10.667386 2.582084 -5.362240 0.033509 -7.473202 8.401397 -5.115812 11.238194 -0.114964 -3.584506 3.207404 0.083950 0.145170 0.001210 -2.787967 -2.087335 -7.827951 0.460471 5.024085 12.090007 4.244806 5.633485 10.205237 -0.701746 -5.926402 -13.172269 -18.266859 7.394452 50.176138 0.983950 0.595490 4.529380 -13.059505 -16.213119 4.892727 -36.180627 -18.860507 3.990723 -26.214370 -26.246962 5.806109 -3.735378 3.121875 0.050730 0.078400 -0.075940 0.094990 15.820118 23.250858 9.972392 29.778210 13.896965 1.395873 5.158594 10.092008 0.237580 2.652586 -1.205291 -0.060550 0.106940 -0.000410 -0.003470 
1.875810 17.146810 -3.339060 -0.121581 -4.471870 1.128716 -15.470742 12.654237 4.195815 7.910234 -5.196731 -29.055849 -15.597741 14.153145 35.564933 0.629862 7.864193 1.681629 0.124030 0.077440 0.008810 17.979806 -10.518929 2.473657 -6.068576 -0.206534 -6.033415 8.437779 -5.213056 10.856313 -0.152222 -3.690383 3.172863 0.081940 0.130180 -0.004350 -2.657481 -2.080148 -8.026519 -0.474419 5.755510 13.060300 4.911024 6.325474 10.298434 -0.865895 -5.385347 -13.294084 -17.444946 6.054201 51.109758 1.584910 -0.736770 4.266560 -12.973073 -16.488768 4.412800 -33.733357 -19.741171 3.736457 -27.347958 -28.850579 6.889722 -3.706279 3.123513 0.065620 0.057620 -0.064270 0.092930 16.122977 23.260825 10.714764 28.774778 11.801571 1.096925 5.065120 9.068962 0.202894 2.659006 -1.196531 -0.056360 0.109350 -0.003170 -0.002460 
1.854440 17.158120 -3.320450 0.506511 -2.327614 0.500663 -15.552139 12.355436 4.572086 9.440744 -5.914910 -31.052628 -19.215594 16.181939 36.960079 0.834530 8.731485 1.398316 0.124640 0.076920 0.004950 17.947855 -10.359730 2.363255 -6.805415 -0.441921 -4.522600 8.453977 -5.323494 10.518900 -0.188667 -3.812320 3.137778 0.077920 0.123910 -0.011930 -2.530079 -2.096378 -8.211328 -1.388758 6.324090 13.908049 5.497011 6.842132 10.319573 -1.028207 -4.825192 -13.353923 -16.601860 4.901946 52.085469 2.235210 -1.880350 4.325750 -13.193123 -16.691641 3.932992 -31.453814 -20.412822 3.424263 -28.159905 -31.321021 7.935991 -3.681643 3.126851 0.074690 0.043370 -0.058680 0.094660 16.712364 23.105560 11.364929 27.905164 9.638644 0.851874 5.286942 7.982109 0.174590 2.665826 -1.190506 -0.054890 0.113150 -0.005050 0.001160 
1.836000 17.162480 -3.302750 1.131787 -0.173655 -0.032633 -15.622452 12.060467 4.932244 11.005693 -6.545484 -32.759676 -23.181201 18.073889 37.419197 1.028312 9.466572 1.169070 0.127340 0.079340 0.002540 17.925918 -10.213522 2.247485 -7.643113 -0.616051 -3.266966 8.623885 -5.510337 10.535789 -0.222474 -3.948318 3.092477 0.076890 0.118020 -0.015320 -2.426891 -2.090920 -8.369086 -2.171154 6.816117 14.634458 5.977512 7.281885 10.367213 -1.207431 -4.254348 -13.263814 -15.682015 3.629356 52.815889 2.762630 -3.045500 4.266920 -13.333915 -16.690071 3.392760 -29.554949 -21.169137 3.155663 -28.680713 -33.942261 9.000226 -3.660863 3.135359 0.079450 0.032310 -0.053860 0.095370 17.212955 22.717204 11.865044 27.427348 7.624944 0.699369 5.386345 6.672216 0.121278 2.676393 -1.189263 -0.050880 0.114470 -0.006520 0.005430 
1.818720 17.163400 -3.286280 1.594036 1.967342 -0.521539 -15.676838 11.821241 5.235018 12.484067 -6.996601 -33.984165 -27.120517 19.472047 36.756525 1.175821 9.947064 1.025203 0.137110 0.090410 0.008450 17.911101 -10.096901 2.143036 -8.293451 -0.754606 -2.304478 8.694118 -5.688480 10.814626 -0.251755 -4.058150 3.052877 0.080860 0.108420 -0.017700 -2.349009 -2.096178 -8.493838 -2.688258 7.125460 15.330403 6.369400 7.552775 10.386268 -1.369622 -3.714528 -13.064228 -14.811710 2.460599 53.429761 3.205130 -4.061710 4.014450 -13.579748 -16.528102 2.845762 -28.125044 -21.875786 2.929816 -28.914852 -36.230547 9.896635 -3.641307 3.143225 0.083860 0.020530 -0.045760 0.095600 17.747060 22.149980 12.183329 27.214701 5.827308 0.567133 5.380629 5.381358 0.059434 2.688703 -1.189613 -0.044620 0.115880 -0.012170 0.008580 
1.801330 17.160630 -3.272410 1.957138 4.089639 -0.931345 -15.716009 11.636802 5.494170 13.917119 -7.257118 -34.733835 -31.197761 20.321801 34.923439 1.276479 10.197034 0.957529 0.140350 0.093710 0.006630 17.901169 -10.026003 2.030628 -8.741291 -0.850262 -1.771299 8.444473 -5.850205 11.632731 -0.266462 -4.134539 3.024359 0.082920 0.105780 -0.019460 -2.294094 -2.095334 -8.587089 -3.006432 7.304712 15.933810 6.587500 7.722189 10.352262 -1.496598 -3.140052 -12.845543 -13.850516 1.423414 53.967013 3.628930 -4.867800 3.992690 -13.960404 -16.391938 2.330313 -26.944247 -22.546238 2.712793 -28.688483 -38.357399 10.604022 -3.627333 3.150781 0.087350 0.014640 -0.042960 0.097790 18.326455 21.512408 12.436518 27.392493 4.020400 0.407159 5.210779 4.269001 0.006569 2.694667 -1.195062 -0.043450 0.117300 -0.013740 0.010850 
1.788510 17.152700 -3.258870 2.158007 6.131179 -1.202179 -15.736847 11.494740 5.688022 15.070498 -7.414735 -35.023959 -34.955610 20.557124 32.438992 1.332348 10.251909 0.948910 0.142430 0.095270 0.003640 17.901659 -9.988783 1.932516 -9.072742 -0.934457 -1.470767 8.110573 -5.982627 12.500223 -0.274485 -4.192253 3.000046 0.085280 0.105040 -0.019320 -2.275772 -2.076482 -8.646903 -3.005060 7.330781 16.272773 6.673488 7.765952 10.378770 -1.597046 -2.630976 -12.580111 -13.017943 0.455087 54.327153 4.003550 -5.653050 3.945160 -14.111427 -16.107323 1.860275 -26.604041 -23.378590 2.646553 -27.902276 -40.256401 10.998393 -3.616073 3.156540 0.089010 0.010910 -0.042400 0.098540 18.603442 20.730129 12.573110 27.998790 2.323697 0.243184 5.161573 3.389369 -0.034656 2.698111 -1.202071 -0.042450 0.117670 -0.012740 0.013230 
